<?xml version="1.0" encoding="UTF-8"?>
<svg id="Camada_1" xmlns="http://www.w3.org/2000/svg" version="1.1" viewBox="0 0 259.9 259.9">
  <!-- Generator: Adobe Illustrator 30.7.0, SVG Export Plug-In . SVG Version: 2.1.4 Build 114)  -->
  <defs>
    <style>
      .st0 {
        fill: #2493cc;
      }

      .st1 {
        fill: #fefefe;
      }
    </style>
  </defs>
  <circle class="st0" cx="129.9" cy="129.9" r="127"/>
  <g>
    <path class="st1" d="M181.9,102.9c4.2-1.1,8,1.5,9,5.4s-1.5,8-5.4,9-7.9-1.3-9-5.1c-1.1-3.9,1-8.2,5.4-9.3ZM183.3,107.8c-1.5.2-2.2,1.5-2,2.9s1.4,2.2,2.8,1.8,2.2-1.5,1.9-2.8-1.4-2.1-2.7-1.9Z"/>
    <g>
      <path class="st1" d="M87.4,49.8c3.1.2,5.5,2.4,6.1,5.5s.4,11.7,0,13.8c-1.2,7.1-12.9,8.4-15.3,1.2-4.1.3-7.6-1-8.5-5.3-3.7-.2-7,.7-7.5,4.8v42.1c1.8.3,4,1,4.6,3.3l.4,18.6c.6,3.8,3,6.1,6.8,6.8l16.7.3c2.7,1,2.8,5.1,0,6h-17.1c-7.2-1-11.5-5.5-12.6-12.6l-.2-15.9h-3.6l.2,16.6c1.2,9.1,6.4,14.2,15.5,15.5h13.9c3.9.6,5.6,2.6,6,6.4v8l.2.4c4.3.2,8.6.2,12.9,0l.3-.5v-7.7c.3-3.8,1.9-5.9,5.8-6.6h14.5c9.2-1.3,14.1-6.5,15.5-15.6l.2-16.6h-3.7v15.9c-1.3,7-5.8,11.6-12.9,12.8h-25.3c-3.1-.9-3.2-4.9-.3-6.1l25-.3c4-.5,6.3-3.2,7-7l.3-17.5c.4-2.7,2.2-3.9,4.8-4v-42.2c-.4-4.1-3.8-5-7.5-4.8-.9,4.4-4.5,5.6-8.5,5.3-3,7.3-13.5,6.1-15.4-1.3v-13.6c.6-3.1,3.1-5.2,6.1-5.5h3.6c2.5,1.2,4,1.8,5.2,4.7.4.3,1.5.2,2.1.2,3.1-.2,5.6,1.6,6.2,4.6h5.3c4.5,1.1,7.7,4.4,8.6,8.9v44.4c2-.5,4.9,1,4.9,3.3v20.4c-.9,10.3-9.5,18.7-19.7,19.6l-14.8.2c-.7,0-1.3.4-1.3,1.3v8.5c0,2.7-2.3,4.5-5,5l.2,19.9c.4,6.9,6,12.2,12.8,12.5,7.5.3,13.3-5.4,14-12.8l.3-17.7c1.3-8.9,8.5-15.3,17.3-15.9,9.9-.7,18.6,6.5,19.8,16.4l.2,14.3c0,1.4.9,2.5,2.2,2.6s2.7-.7,2.7-2.1v-62.3c-7.5-3.5-11.3-11.8-9.4-19.8,1.8-7.7,8.8-13.2,16.8-13.2s15,5.5,16.8,13.2-1.9,16.3-9.4,19.8v51.2c0,1.2-1.7,1.8-2.5,1.8s-2.4-.6-2.4-1.8v-49.6h-5v61.7c-1,3.8-4,6.2-7.7,6.1-3.3-.1-6.9-2.6-7-6.3l-.2-14.2c-.7-7.5-6.7-12.8-13.8-12.7s-13,5.5-13.6,13l-.3,17.2c-1,9.5-9.2,16.4-18.4,16.3-9,0-17.3-6.8-18.1-16.2l-.3-21.3h-4.9l.2,19.9c.6,11.5,9.2,20.9,20.5,22.3,13.7,1.7,25.7-9.5,25.9-21.9l.3-17.2c.5-4.5,4.8-7.5,8.8-7.4,4.3,0,8.5,3.1,8.6,7.6l.2,14.3c.5,6.7,6,11.7,12.5,11.5,6.3-.2,11.7-5.3,11.9-11.8,0-1.7,1-3,2.6-3s2.6,1.3,2.5,3c-.3,9.3-7.6,16.5-16.7,16.8-8.8.3-16.8-6.1-17.8-15.2l-.2-14.6c0-2.3-2-3.6-4-3.6s-3.7,1.4-3.7,3.6l-.2,17.9c-.5,5.8-3.1,11.1-6.8,15.4-5.9,6.8-14.3,10.3-23.3,9.6-13.6-.9-24.4-11.6-26.2-25.1v-22.2c-2.7-.5-5-2.5-5-5.3v-8.2c0-.6-.4-1.2-1-1.2l-14.8-.2c-10.2-1-18.8-9.3-19.6-19.6v-20.4c0-2.3,2.7-3.7,4.7-3.3v-44.1c.7-4.9,4.4-8.4,9.2-9.3h4.7c1.2-4.4,4-4.6,8.3-4.7.8-2.6,2.8-3.9,5.1-4.8h3.6l.2-.2ZM83.6,68.2c.3,1,1.7,1.4,2.6,1.2s1.9-1.1,1.9-2.2v-10c0-1.2-1.1-2-1.9-2.2s-2.2,0-2.4,1c-1.6,6-7.4,2.7-8.1,4.4s-.5,2.7,0,3.8c.7,1.6,6.5-1.5,8,4.2v-.2ZM123.7,63.9c.5-1.1.4-2.7,0-3.7-.7-1.7-6.4,1.6-8.2-4.4s-2-1.2-2.7-.9-1.7,1.1-1.7,2.2v10.1c0,1.3,1.4,2.3,2.4,2.3s2.1-.8,2.4-2c1.4-4.8,7-1.8,7.7-3.6h0ZM182.5,98c-7.1.7-11.8,7-11,13.6s6.8,11.4,13.3,10.8,11.7-6.7,11-13.3c-.7-6.6-6.4-11.7-13.3-11h0Z"/>
      <path class="st1" d="M121.9,98.6c1.1,10.9-10.2,21.7-20.1,26-1.5.7-3.1.5-4.6,0-8.5-3.7-17.3-11.8-19.5-20.9s3.3-16.2,11.8-17.2c3.6-.4,7.2,1,10.1,3.2,2.9-2.3,6.4-3.7,10.1-3.2,6.5.8,11.5,5.6,12.1,12.2h0ZM116.7,101.2c.5-3.8-1.4-7.3-4.6-8.8s-7.2-.8-9.9,1.8-3.9,1.4-5.3,0c-2.7-2.7-6.5-3.5-9.9-1.8s-5.1,5-4.6,8.8c.9,7.8,9.7,15.7,17.1,18.8,7.5-3.2,16.1-10.8,17.1-18.8h.1Z"/>
    </g>
  </g>
</svg>