<?xml version="1.0" encoding="UTF-8"?>
<svg id="Camada_1" xmlns="http://www.w3.org/2000/svg" version="1.1" viewBox="0 0 259.9 259.9">
  <!-- Generator: Adobe Illustrator 30.7.0, SVG Export Plug-In . SVG Version: 2.1.4 Build 114)  -->
  <defs>
    <style>
      .st0 {
        fill: #2493cc;
      }

      .st1 {
        fill: #fefefe;
      }
    </style>
  </defs>
  <circle class="st0" cx="129.9" cy="129.9" r="127"/>
  <path class="st1" d="M231.9,269.1l-204.9-.2c-.7-.8-2.7-1.6-2.7-3.2l.2-60.4c0-6.2,2.8-11.5,5.6-16.8,4.1-7.6,10.9-12.6,18.7-16.1,1.2-.5,1.9-1.3,3.3-1.6l52.8-13.7v-5.1c-11.7-7.8-19.2-20.4-20.7-34.9v-41.1c.8-6.5,2.6-12.2,5.5-17.9s8.2-11.4,14.1-15.9c14.1-10.7,37.8-10.7,51.7,0s11,9.5,14.2,16.2,4.6,11.1,5.3,17.6v41.1c-1.8,14.7-8.6,26.2-20.4,34.6v5.4l52.4,13.7c1.8.5,2.8,1.4,4.3,2.1,7.4,3.5,13.8,8.6,17.7,15.7,4,7.1,6.1,14.3,5.8,22.5,0,2.6-1.5,5-4.4,5.2s-4.9-2.2-4.6-4.8-.3-3.3-.4-5c-.3-6.5-3.1-12.1-7.1-17-1.3-1.6-2.2-3.3-4.2-4.3-3.6-2.9-7.9-4.7-12.4-5.9l-17.2-4.4c6.5,7.9,9.6,17.2,10.3,27.3l.2,21.1c5.9,2.1,9.3,7.7,8.9,14s-6.5,12.9-13.7,13c-7,0-13.1-5.3-13.7-12.5-.6-6.7,2.9-12.3,9.1-14.6l-.2-22.3c0-4.5-1.7-8.5-3.4-12.6-3-6.8-8.1-12-14.2-16-1.5-1.8-4-2.5-6.1-3.2-1.2,1.3-1.3,2.7-1.9,4.1l-6.4,14-7.8,17.2-7,15.3c-1.1,3.1-2.3,6-4.1,9v31.5h91.2l.2-8.4c0-2.1,2.6-3.7,4.5-3.6s4.1,1.6,4.1,3.6v14.1c0,1.5-1.7,2.4-2.5,3.2h-.1ZM154.7,69.9c-.3,2.9-.8,5.2-1.5,7.9l4.5,4.4c2.2,2.2,5.3,3.1,8.1,3.9-.3-2.1.3-3.6.2-5.2l-.2-4.1c-.4-6.7-2.9-12.4-6.6-18-7.1-10.8-20.9-16.3-34-14.7s-19.4,6.3-24.9,14.7-6.2,11.3-6.6,18-.4,2.8-.3,4c0,2,.5,3.6.2,5.9l36.3-.3c9.3-.6,15.4-8.5,15.6-17.2,0-3,2.4-5.3,4.8-5.1,2.4.2,4.7,2.6,4.4,5.8h0ZM114.5,146.6c13.1,6.2,28.7,3.7,39.2-5.9s2-2.5,3.1-3.6c6.4-6.6,9.1-15.3,9.2-24.3l.2-16.8c-4.3-1.1-8.7-2-12-4.8s-4-3.1-5.6-5c-5.7,6.4-12,10.1-20.5,10.1l-35,.2v16.7c.2,10.2,4.1,19.5,11.6,26.4,2.3,3.4,5.8,5.2,9.8,7.1h0ZM142.3,189.7l5.3-11.5,5.2-11.7c-1.6-.9-3.4-1-5.1-1.7-3.2-1.3-2.1-5.1-2.8-7.9-10.2,3.7-20.5,3.6-30.3,0v2.8c0,2.6-1.6,4.7-4,5.4l-3.9,1.1c1.3,2.3,1.9,4.4,2.8,6.5l7.5,16.5,7,15.3,5.7,12.4,6.1-13.2,6.5-14.2v.2ZM48,246.4v-20.6c.8-9.3,7.1-16.7,15.9-18.8.2-12.5,3.1-22.4,10.3-31.9l-16.5,4.1c-6.3,1.6-13.6,4.9-16.9,10.3-4.5,5.1-7.4,11.4-7.4,18.5l-.3,51.9h91.8v-30.7c-1.8-3.4-3.2-6.7-4.6-10.1l-7.5-16.5-6.5-14.4-5.7-12.5c-1.1-2.3-1.7-4.7-3-6.8-2.6.6-4.5,1.8-6.5,3.2-5.9,4.3-11.2,9.3-14.1,16.1-2.6,6-4.1,12.1-3.5,18.7,8.5,2.2,15.7,9.4,15.8,18.4v21.7c0,1.2-1.9,3-3.1,3h-9.2c-1.9,0-3.6-2.5-3.5-4.3.2-3.5,3.3-5.3,7-4.3v-14.3c0-5.1-3.5-9.9-8.5-11.1-4.6-1.1-9.7.2-12.3,4.2-.9,1.3-2.1,3.3-2.1,4.9l-.2,16.1c3-.7,5.7.9,6.1,3.9s-1.6,5-4.2,5h-7.7c-1.2-.2-3.5-2.1-3.5-3.8h-.1ZM194.2,239.1c1.3-2.1.8-4.6-.9-6.3s-5.2-1.3-6.8.8-1.1,5.3,1.2,6.8,5,1.2,6.5-1.4h0Z"/>
</svg>